# xmcd
#
# Track frame offsets: 
#        150
#        22948
#        41586
#        66840
#        87036
#        106509
#        126009
#        144548
#        165362
#        184269
#        201500
#        221479
#        243988
#        262358
#        280072
#        299633
#
# Disc length: 4244 seconds
#
# Revision: 0
# Processed by: cddbd v1.5.2PL0 Copyright (c) Steve Scherf et al.
# Submitted via: ExactAudioCopyFreeDBPlugin 1.0
#
DISCID=ed109210
DTITLE=Various Artist - 2010情歌試音王NO.4 典範男聲DSD
DYEAR=2010
DGENRE=Country
TTITLE0=在路上
TTITLE1=是誰讓我哭了一整夜
TTITLE2=西海情歌
TTITLE3=猜不透
TTITLE4=七滴眼淚
TTITLE5=付出不一定能收回
TTITLE6=找一個喝醉的理由
TTITLE7=藕斷絲連
TTITLE8=錯過的情人
TTITLE9=多情的我遇上絕情的你
TTITLE10=我愛你你卻愛著他
TTITLE11=愛上離婚的女人
TTITLE12=不要在我寂寞的時候說愛我
TTITLE13=從此我該怎么過
TTITLE14=怎么會狠心傷害我
TTITLE15=全世界最傷心的人
EXTD=
EXTT0=
EXTT1=
EXTT2=
EXTT3=
EXTT4=
EXTT5=
EXTT6=
EXTT7=
EXTT8=
EXTT9=
EXTT10=
EXTT11=
EXTT12=
EXTT13=
EXTT14=
EXTT15=
PLAYORDER=
